<svg width="50" height="50" viewBox="0 0 50 50" fill="none" xmlns="http://www.w3.org/2000/svg">
<path fill-rule="evenodd" clip-rule="evenodd" d="M25 4.16666C13.4938 4.16666 4.16669 13.4937 4.16669 25C4.16669 36.5062 13.4938 45.8333 25 45.8333C36.5063 45.8333 45.8334 36.5062 45.8334 25C45.8334 13.4937 36.5063 4.16666 25 4.16666ZM15.1438 21.75C21.8938 19.8667 28.6959 20.8146 34.5896 23.3625C35.0959 23.5764 35.6663 23.5815 36.1764 23.3768C36.6865 23.1721 37.095 22.7741 37.3129 22.2695C37.5309 21.7649 37.5406 21.1946 37.3399 20.6829C37.1393 20.1711 36.7445 19.7595 36.2417 19.5375C29.6375 16.6833 21.8542 15.5521 14.0229 17.7375C13.499 17.8932 13.0572 18.2485 12.7928 18.727C12.5285 19.2054 12.4627 19.7686 12.6098 20.295C12.7569 20.8215 13.1049 21.269 13.5789 21.5412C14.053 21.8134 14.615 21.8884 15.1438 21.75ZM16.1354 27.7208C21.9438 26.1021 28.6271 27.1146 32.3438 29.3958C32.8148 29.6848 33.3813 29.7748 33.9188 29.6461C34.4562 29.5173 34.9204 29.1804 35.2094 28.7094C35.4984 28.2383 35.5884 27.6718 35.4597 27.1344C35.3309 26.597 34.994 26.1327 34.5229 25.8437C29.7063 22.8854 21.8063 21.8146 15.0167 23.7083C14.4961 23.8666 14.058 24.2223 13.7962 24.6993C13.5344 25.1764 13.4697 25.7369 13.6159 26.2611C13.762 26.7853 14.1074 27.2315 14.5783 27.5042C15.0491 27.777 15.608 27.8548 16.1354 27.7208ZM17.0334 33.4583C19.3875 32.9167 22.0063 32.9104 24.3084 33.2687C26.6834 33.6354 28.3959 34.3396 29.1375 34.9479C29.5657 35.2977 30.1154 35.463 30.6655 35.4075C31.2156 35.352 31.7211 35.0803 32.0709 34.6521C32.4206 34.2239 32.5859 33.6742 32.5305 33.1241C32.475 32.574 32.2032 32.0685 31.775 31.7187C30.1854 30.4208 27.6084 29.5625 24.9479 29.15C22.2146 28.7271 19.0542 28.7187 16.1 29.4C15.8256 29.4534 15.5648 29.5614 15.333 29.7177C15.1013 29.874 14.9034 30.0753 14.751 30.3097C14.5987 30.5441 14.4951 30.8067 14.4464 31.082C14.3977 31.3573 14.4049 31.6395 14.4676 31.9119C14.5302 32.1843 14.647 32.4414 14.8111 32.6677C14.9752 32.894 15.1831 33.085 15.4225 33.2293C15.6619 33.3736 15.9279 33.4682 16.2046 33.5076C16.4814 33.5469 16.7632 33.5302 17.0334 33.4583Z" fill="white"/>
</svg>
