<svg width="16" height="20" viewBox="0 0 16 20" fill="none" xmlns="http://www.w3.org/2000/svg">
<path d="M12.8 1.25C13.2243 1.25 13.6313 1.3817 13.9314 1.61612C14.2314 1.85054 14.4 2.16848 14.4 2.5V17.5C14.4 17.8315 14.2314 18.1495 13.9314 18.3839C13.6313 18.6183 13.2243 18.75 12.8 18.75H3.2C2.77565 18.75 2.36869 18.6183 2.06863 18.3839C1.76857 18.1495 1.6 17.8315 1.6 17.5V2.5C1.6 2.16848 1.76857 1.85054 2.06863 1.61612C2.36869 1.3817 2.77565 1.25 3.2 1.25H12.8ZM3.2 0C2.35131 0 1.53737 0.263392 0.937258 0.732233C0.337142 1.20107 0 1.83696 0 2.5V17.5C0 18.163 0.337142 18.7989 0.937258 19.2678C1.53737 19.7366 2.35131 20 3.2 20H12.8C13.6487 20 14.4626 19.7366 15.0627 19.2678C15.6629 18.7989 16 18.163 16 17.5V2.5C16 1.83696 15.6629 1.20107 15.0627 0.732233C14.4626 0.263392 13.6487 0 12.8 0L3.2 0Z" fill="white"/>
<path d="M14.2392 1.2221C13.8412 0.911135 13.3224 0.75 12.8 0.75H3.2C2.67759 0.75 2.15885 0.911135 1.76081 1.2221C1.35984 1.53536 1.1 1.99043 1.1 2.5V17.5C1.1 18.0096 1.35984 18.4646 1.76081 18.7779C2.15885 19.0889 2.67759 19.25 3.2 19.25H12.8C13.3224 19.25 13.8412 19.0889 14.2392 18.7779C14.6402 18.4646 14.9 18.0096 14.9 17.5V2.5C14.9 1.99043 14.6402 1.53536 14.2392 1.2221ZM1.24508 1.12625C1.74721 0.733953 2.44937 0.5 3.2 0.5H12.8C13.5506 0.5 14.2528 0.733953 14.7549 1.12625C15.2541 1.51625 15.5 2.01501 15.5 2.5V17.5C15.5 17.985 15.2541 18.4837 14.7549 18.8738C14.2528 19.266 13.5506 19.5 12.8 19.5H3.2C2.44937 19.5 1.74721 19.266 1.24508 18.8738C0.74587 18.4837 0.5 17.985 0.5 17.5V2.5C0.5 2.01501 0.745871 1.51625 1.24508 1.12625Z" stroke="black" stroke-opacity="0.2"/>
<path d="M7.99984 17.5C8.42419 17.5 8.83115 17.3683 9.13121 17.1339C9.43127 16.8995 9.59984 16.5815 9.59984 16.25C9.59984 15.9185 9.43127 15.6005 9.13121 15.3661C8.83115 15.1317 8.42419 15 7.99984 15C7.5755 15 7.16853 15.1317 6.86847 15.3661C6.56841 15.6005 6.39984 15.9185 6.39984 16.25C6.39984 16.5815 6.56841 16.8995 6.86847 17.1339C7.16853 17.3683 7.5755 17.5 7.99984 17.5Z" fill="white"/>
<path d="M8.82339 16.7399C8.62131 16.8977 8.32612 17 7.99984 17C7.67356 17 7.37837 16.8977 7.17629 16.7399L6.86847 17.1339L7.17629 16.7399C6.97714 16.5843 6.89984 16.4035 6.89984 16.25C6.89984 16.0965 6.97714 15.9157 7.17629 15.7601C7.37837 15.6023 7.67356 15.5 7.99984 15.5C8.32612 15.5 8.62131 15.6023 8.82339 15.7601C9.02254 15.9157 9.09984 16.0965 9.09984 16.25C9.09984 16.4035 9.02254 16.5843 8.82339 16.7399Z" stroke="black" stroke-opacity="0.2"/>
</svg>
