<svg width="24" height="24" viewBox="0 0 24 24" fill="none" xmlns="http://www.w3.org/2000/svg">
<g clip-path="url(#clip0_21_104)">
<path d="M7.97628 0.650242C5.5783 1.48212 3.5103 3.06105 2.07601 5.15512C0.641723 7.24919 -0.0832399 9.74801 0.00760565 12.2846C0.0984512 14.8211 1.00032 17.2617 2.58073 19.2477C4.16115 21.2338 6.33681 22.6608 8.78815 23.319C10.7755 23.8318 12.8577 23.8543 14.8557 23.3846C16.6656 22.9781 18.339 22.1084 19.7119 20.8609C21.1408 19.5228 22.178 17.8205 22.7119 15.9371C23.2921 13.889 23.3953 11.7351 23.0138 9.64087H11.8538V14.2702H18.3169C18.1877 15.0086 17.9109 15.7133 17.5031 16.3422C17.0952 16.9711 16.5646 17.5112 15.9432 17.9302C15.154 18.4525 14.2643 18.8038 13.3313 18.9615C12.3955 19.1355 11.4358 19.1355 10.5 18.9615C9.55156 18.7656 8.65435 18.3742 7.86565 17.8121C6.59843 16.9151 5.64692 15.6407 5.1469 14.1709C4.63857 12.6735 4.63857 11.0502 5.1469 9.55274C5.50283 8.50315 6.09121 7.5475 6.86815 6.75712C7.75726 5.83602 8.8829 5.17761 10.1216 4.85413C11.3602 4.53066 12.6641 4.55461 13.89 4.92337C14.8478 5.21722 15.7236 5.73089 16.4475 6.42337C17.1763 5.69837 17.9038 4.97149 18.63 4.24274C19.005 3.85087 19.4138 3.47774 19.7832 3.07649C18.6779 2.04809 17.3806 1.24781 15.9657 0.721492C13.3888 -0.214152 10.5694 -0.239297 7.97628 0.650242Z" fill="white"/>
<path d="M7.9763 0.650207C10.5692 -0.239936 13.3887 -0.215454 15.9657 0.719582C17.3809 1.24948 18.6776 2.05361 19.7813 3.08583C19.4063 3.48708 19.0107 3.86208 18.6282 4.25208C17.9007 4.97833 17.1738 5.70208 16.4476 6.42333C15.7236 5.73085 14.8478 5.21719 13.8901 4.92333C12.6645 4.55328 11.3607 4.52795 10.1217 4.8501C8.88272 5.17225 7.75639 5.82945 6.8663 6.74958C6.08937 7.53996 5.50098 8.49561 5.14505 9.54521L1.25818 6.53583C2.64944 3.77688 5.05833 1.6665 7.9763 0.650207Z" fill="#E33629"/>
<path d="M0.611279 9.65625C0.820041 8.62082 1.16689 7.61812 1.64253 6.675L5.5294 9.69188C5.02107 11.1893 5.02107 12.8126 5.5294 14.31C4.2344 15.31 2.93878 16.315 1.64253 17.325C0.452186 14.9556 0.0891526 12.2559 0.611279 9.65625Z" fill="#F8BD00"/>
<path d="M11.8538 9.63896H23.0138C23.3953 11.7332 23.2921 13.8871 22.7119 15.9352C22.178 17.8186 21.1408 19.5209 19.7119 20.859C18.4576 19.8802 17.1976 18.909 15.9432 17.9302C16.5651 17.5107 17.0959 16.97 17.5038 16.3405C17.9116 15.7109 18.1882 15.0055 18.3169 14.2665H11.8538C11.8519 12.7252 11.8538 11.1821 11.8538 9.63896Z" fill="#587DBD"/>
<path d="M1.25629 17.1858C2.55254 16.1858 3.84816 15.1808 5.14316 14.1708C5.64418 15.6412 6.59705 16.9156 7.86566 17.8121C8.65682 18.3715 9.55597 18.7598 10.5057 18.9521C11.4414 19.1261 12.4012 19.1261 13.3369 18.9521C14.27 18.7944 15.1597 18.4431 15.9488 17.9208C17.2032 18.8996 18.4632 19.8708 19.7175 20.8496C18.3448 22.0978 16.6714 22.9681 14.8613 23.3752C12.8633 23.8449 10.7811 23.8224 8.79379 23.3096C7.22198 22.8899 5.7538 22.1501 4.48129 21.1365C3.13453 20.067 2.03448 18.7194 1.25629 17.1858Z" fill="#319F43"/>
</g>
<defs>
<clipPath id="clip0_21_104">
<rect width="24" height="24" fill="white"/>
</clipPath>
</defs>
</svg>
