<svg width="22" height="24" viewBox="0 0 22 24" fill="none" xmlns="http://www.w3.org/2000/svg">
<path d="M18.3302 23.0371C16.9087 24.3036 15.3567 24.1036 13.8626 23.5037C12.2816 22.8904 10.8311 22.8638 9.16298 23.5037C7.07425 24.3303 5.97186 24.0903 4.72442 23.0371C-2.35406 16.3313 -1.3097 6.11923 6.72613 5.74594C8.68432 5.83926 10.0478 6.73248 11.1937 6.81247C12.9053 6.49251 14.5444 5.57263 16.372 5.69261C18.5623 5.85259 20.2159 6.65249 21.3038 8.09231C16.7782 10.5853 17.8515 16.0646 22 17.5978C21.1732 19.5975 20.0998 21.5839 18.3157 23.0504L18.3302 23.0371ZM11.0486 5.66595C10.8311 2.69299 13.4565 0.23997 16.4736 0C16.8942 3.43957 13.0794 5.99924 11.0486 5.66595Z" fill="white"/>
</svg>
