<svg width="24" height="24" viewBox="0 0 24 24" fill="none" xmlns="http://www.w3.org/2000/svg">
<g clip-path="url(#clip0_21_112)">
<path d="M24 12C24 5.37262 18.6274 0 12 0C5.37262 0 0 5.37253 0 12C0 17.9895 4.38825 22.954 10.125 23.8542V15.4688H7.07812V12H10.125V9.35625C10.125 6.34875 11.9166 4.6875 14.6575 4.6875C15.9705 4.6875 17.3438 4.92188 17.3438 4.92188V7.875H15.8306C14.3398 7.875 13.875 8.80003 13.875 9.74906V12H17.2031L16.6711 15.4688H13.875V23.8542C19.6117 22.954 24 17.9896 24 12Z" fill="#1877F2"/>
<path d="M16.4367 15.4688L16.9688 12H13.6406V9.74906C13.6406 8.79994 14.1055 7.875 15.5963 7.875H17.1094V4.92188C17.1094 4.92188 15.7361 4.6875 14.4232 4.6875C11.6822 4.6875 9.89062 6.34875 9.89062 9.35625V12H6.84375V15.4688H9.89062V23.8542C10.5109 23.9514 11.1378 24.0002 11.7656 24C12.3935 24.0002 13.0204 23.9514 13.6406 23.8542V15.4688H16.4367Z" fill="white"/>
</g>
<defs>
<clipPath id="clip0_21_112">
<rect width="24" height="24" fill="white"/>
</clipPath>
</defs>
</svg>
