<svg width="24" height="24" viewBox="0 0 24 24" fill="none" xmlns="http://www.w3.org/2000/svg">
<path d="M23.9488 21.2155L18.653 7.02668C18.5798 6.83103 18.4693 6.65191 18.3277 6.49958C18.1862 6.34724 18.0165 6.22466 17.8283 6.13884C17.64 6.05303 17.4369 6.00565 17.2306 5.99942C17.0243 5.99319 16.8188 6.02823 16.6259 6.10254L14.143 7.05059V4.71632C14.143 4.31064 13.9841 3.92158 13.7011 3.63472C13.4182 3.34786 13.0345 3.18671 12.6344 3.18671H8.64294V1.52962C8.64294 1.12394 8.484 0.734874 8.20109 0.448015C7.91817 0.161156 7.53446 0 7.13435 0H1.57144C1.15467 0 0.754968 0.167871 0.460265 0.466682C0.165562 0.765494 0 1.17077 0 1.59335V23.1036C0 23.3149 0.0827811 23.5175 0.230133 23.6669C0.377484 23.8164 0.577335 23.9003 0.785722 23.9003H13.3573C13.5657 23.9003 13.7655 23.8164 13.9129 23.6669C14.0602 23.5175 14.143 23.3149 14.143 23.1036V12.9619L18.0716 23.486C18.1082 23.5838 18.1635 23.6734 18.2342 23.7496C18.305 23.8257 18.3899 23.887 18.484 23.9299C18.5781 23.9728 18.6797 23.9965 18.7828 23.9996C18.886 24.0028 18.9887 23.9852 19.0852 23.9481L23.4931 22.2432C23.5896 22.2061 23.6779 22.15 23.753 22.0783C23.8281 22.0065 23.8886 21.9205 23.9309 21.8251C23.9732 21.7296 23.9966 21.6267 23.9997 21.5221C24.0027 21.4175 23.9854 21.3133 23.9488 21.2155ZM7.0715 4.64462V22.3069H1.57144V1.59335H7.0715V4.64462ZM12.5715 22.3069H8.64294V4.78006H12.5715V22.3069ZM19.258 22.1078L14.2451 8.69971L17.1837 7.56842L22.2045 20.9765L19.258 22.1078Z" fill="white"/>
</svg>
