<svg width="24" height="24" viewBox="0 0 24 24" fill="none" xmlns="http://www.w3.org/2000/svg">
<path fill-rule="evenodd" clip-rule="evenodd" d="M2.66713 10.674C2.66713 9.62266 2.87421 8.58166 3.27655 7.61039C3.67889 6.63913 4.2686 5.75661 5.01203 5.01323C5.75545 4.26986 6.63802 3.68018 7.60935 3.27787C8.58068 2.87556 9.62175 2.66849 10.6731 2.66849C11.7245 2.66849 12.7655 2.87556 13.7369 3.27787C14.7082 3.68018 15.5908 4.26986 16.3342 5.01323C17.0776 5.75661 17.6673 6.63913 18.0697 7.61039C18.472 8.58166 18.6791 9.62266 18.6791 10.674C18.6791 12.7971 17.8356 14.8334 16.3342 16.3347C14.8328 17.836 12.7964 18.6794 10.6731 18.6794C8.54979 18.6794 6.51344 17.836 5.01203 16.3347C3.51062 14.8334 2.66713 12.7971 2.66713 10.674ZM10.6731 6.59334e-08C8.97432 0.000243268 7.30012 0.405901 5.78965 1.18326C4.27918 1.96062 2.97607 3.08723 1.9886 4.46946C1.00114 5.85169 0.357853 7.44961 0.112199 9.13044C-0.133456 10.8113 0.0256202 12.5264 0.576205 14.1334C1.12679 15.7404 2.05298 17.1928 3.27781 18.3699C4.50264 19.5469 5.99072 20.4147 7.6184 20.9011C9.24607 21.3874 10.9663 21.4783 12.6362 21.1661C14.306 20.854 15.8773 20.1478 17.2193 19.1064L21.7387 23.6255C21.9904 23.8685 22.3274 24.003 22.6773 23.9999C23.0271 23.9969 23.3618 23.8566 23.6092 23.6092C23.8566 23.3618 23.9969 23.0272 23.9999 22.6773C24.003 22.3275 23.8685 21.9905 23.6254 21.7388L19.1061 17.2198C20.3311 15.642 21.0888 13.7521 21.293 11.7651C21.4972 9.77802 21.1397 7.77356 20.2612 5.97961C19.3826 4.18566 18.0183 2.67421 16.3233 1.61714C14.6283 0.560061 12.6707 -0.000221912 10.6731 6.59334e-08ZM10.6731 16.0109C12.0886 16.0109 13.4462 15.4486 14.4472 14.4478C15.4481 13.4469 16.0104 12.0894 16.0104 10.674C16.0104 9.2585 15.4481 7.90102 14.4472 6.90014C13.4462 5.89926 12.0886 5.33698 10.6731 5.33698C9.25756 5.33698 7.89999 5.89926 6.89905 6.90014C5.89811 7.90102 5.33579 9.2585 5.33579 10.674C5.33579 12.0894 5.89811 13.4469 6.89905 14.4478C7.89999 15.4486 9.25756 16.0109 10.6731 16.0109Z" fill="white"/>
</svg>
