<svg width="24" height="24" viewBox="0 0 24 24" fill="none" xmlns="http://www.w3.org/2000/svg">
<path d="M23.4804 21.3903L23.4806 21.3909C23.4944 21.4279 23.501 21.4675 23.4999 21.5074C23.4987 21.5473 23.4898 21.5864 23.4738 21.6224L23.9309 21.8251L23.4738 21.6224C23.4579 21.6584 23.4353 21.6903 23.4077 21.7167L23.753 22.0783L23.4077 21.7167C23.3801 21.7431 23.348 21.7633 23.3135 21.7766L23.3127 21.7769L18.9055 23.4815C18.871 23.4948 18.8345 23.501 18.7979 23.4999C18.7613 23.4988 18.7252 23.4904 18.6914 23.475C18.6576 23.4596 18.6267 23.4374 18.6006 23.4093L18.2342 23.7496L18.6006 23.4093C18.5745 23.3812 18.5538 23.3479 18.54 23.311C18.5399 23.3109 18.5399 23.3108 18.5399 23.3107L14.6114 12.7871L13.643 12.9619V23.1036C13.643 23.1845 13.6112 23.2607 13.5569 23.3158C13.5027 23.3707 13.4308 23.4003 13.3573 23.4003H0.785722C0.712191 23.4003 0.640256 23.3707 0.586126 23.3159C0.531761 23.2607 0.5 23.1845 0.5 23.1036V1.59335C0.5 1.30116 0.614541 1.02231 0.816258 0.817779C1.01774 0.613486 1.28953 0.5 1.57144 0.5H7.13435C7.3996 0.5 7.6554 0.606771 7.84509 0.799112C8.03502 0.991689 8.14294 1.25433 8.14294 1.52962V3.18671V3.68671H8.64294H12.6344C12.8996 3.68671 13.1554 3.79348 13.3451 3.98582C13.5351 4.17839 13.643 4.44103 13.643 4.71632V7.05059V7.77671L14.3213 7.51769L16.8042 6.56965L16.8056 6.56913C16.9366 6.51869 17.0758 6.49498 17.2155 6.49919C17.3552 6.50341 17.4929 6.53549 17.6208 6.5938C17.7488 6.65212 17.8646 6.73562 17.9614 6.83988C18.0583 6.94416 18.1343 7.06714 18.1848 7.20197L23.4804 21.3903ZM7.0715 22.8069H7.5715V22.3069V4.64462V1.59335V1.09335H7.0715H1.57144H1.07144V1.59335V22.3069V22.8069H1.57144H7.0715ZM12.5715 22.8069H13.0715V22.3069V4.78006V4.28006H12.5715H8.64294H8.14294V4.78006V22.3069V22.8069H8.64294H12.5715ZM21.1837 16.8247L21.1569 16.753L21.1098 16.6926L16.4493 10.714L16.4326 10.6926L14.6395 8.3923L14.2451 8.69971L13.8508 9.00711L15.6272 11.286L21.7792 21.2394L22.6727 20.8011L21.1837 16.8247Z" fill="white" stroke="white"/>
</svg>
